<?xml version="1.0" encoding="UTF-8" standalone="no"?>
<svg
   xmlns:dc="http://purl.org/dc/elements/1.1/"
   xmlns:cc="http://creativecommons.org/ns#"
   xmlns:rdf="http://www.w3.org/1999/02/22-rdf-syntax-ns#"
   xmlns:svg="http://www.w3.org/2000/svg"
   xmlns="http://www.w3.org/2000/svg"
   xmlns:sodipodi="http://sodipodi.sourceforge.net/DTD/sodipodi-0.dtd"
   xmlns:inkscape="http://www.inkscape.org/namespaces/inkscape"
   id="svg2187"
   viewBox="0 0 50 50"
   version="1.0"
   inkscape:version="0.48.3.1 r9886"
   width="100%"
   height="100%"
   sodipodi:docname="creativity.svg">
  <defs
     id="defs3845" />
  <sodipodi:namedview
     pagecolor="#ffffff"
     bordercolor="#666666"
     borderopacity="1"
     objecttolerance="10"
     gridtolerance="10"
     guidetolerance="10"
     inkscape:pageopacity="0"
     inkscape:pageshadow="2"
     inkscape:window-width="1024"
     inkscape:window-height="705"
     id="namedview3843"
     showgrid="false"
     inkscape:zoom="6.675088"
     inkscape:cx="29.171192"
     inkscape:cy="14.792294"
     inkscape:window-x="-8"
     inkscape:window-y="-8"
     inkscape:window-maximized="1"
     inkscape:current-layer="svg2187" />
  <g
     style="fill:none;stroke:#000000;stroke-width:9.98999977"
     transform="matrix(0.19122423,0,0,0.19122423,37.584174,19.179452)"
     id="g4550">
    <path
       style="stroke-linecap:round;stroke-linejoin:round"
       inkscape:connector-curvature="0"
       d="m -60.221,107.13 -19.562,6.5312 19.562,-6.5312 z m 9.4375,10.719 -29.156,11 29.156,-11 z m -0.3125,15.125 -19.562,6.5312 19.562,-6.5312 z"
       id="path3986-6" />
    <path
       inkscape:connector-curvature="0"
       d="m -45.232,107.94 c 0,0 0,-3.9677 2.1124,-18.855 2.0818,-14.618 23.159,-49.271 24.029,-50.491 7.347,-8.9726 11.724,-19.959 11.724,-31.872 0,-30.14 -27.725,-54.577 -61.919,-54.577 -34.198,0 -61.921,24.437 -61.921,54.577 0,11.912 4.3763,22.9 11.721,31.872 0.86902,1.2212 21.951,35.873 24.031,50.491 2.1146,14.887 2.1146,18.855 2.1146,18.855"
       id="path4420" />
    <path
       style="stroke-linecap:round;stroke-linejoin:round"
       inkscape:connector-curvature="0"
       d="m -68.659,-85.683 -1.2188,20.594 1.2188,-20.594 z m -58.5,15.781 13.688,15.469 -13.688,-15.469 z m 115.78,0 -13.656,15.469 13.656,-15.469 z m -156.06,46.469 19.562,6.5312 -19.562,-6.5312 z m 196.34,0 -19.562,6.5312 19.562,-6.5312 z"
       id="path3986-6-6-8" />
  </g>
  <metadata
     id="metadata3841">
    <rdf:RDF>
      <cc:Work>
        <dc:format>image/svg+xml</dc:format>
        <dc:type
           rdf:resource="http://purl.org/dc/dcmitype/StillImage" />
        <cc:license
           rdf:resource="http://creativecommons.org/licenses/publicdomain/" />
        <dc:publisher>
          <cc:Agent
             rdf:about="http://openclipart.org/">
            <dc:title>Openclipart</dc:title>
          </cc:Agent>
        </dc:publisher>
        <dc:title>Idea icon</dc:title>
        <dc:date>2013-11-10T16:47:40</dc:date>
        <dc:description>Idea pictogram/icon</dc:description>
        <dc:source>https://openclipart.org/detail/188607/idea-icon-by-ousia-188607</dc:source>
        <dc:creator>
          <cc:Agent>
            <dc:title>ousia</dc:title>
          </cc:Agent>
        </dc:creator>
        <dc:subject>
          <rdf:Bag>
            <rdf:li>idea</rdf:li>
            <rdf:li>light bulb</rdf:li>
          </rdf:Bag>
        </dc:subject>
      </cc:Work>
      <cc:License
         rdf:about="http://creativecommons.org/licenses/publicdomain/">
        <cc:permits
           rdf:resource="http://creativecommons.org/ns#Reproduction" />
        <cc:permits
           rdf:resource="http://creativecommons.org/ns#Distribution" />
        <cc:permits
           rdf:resource="http://creativecommons.org/ns#DerivativeWorks" />
      </cc:License>
    </rdf:RDF>
  </metadata>
</svg>
