<?xml version="1.0" encoding="UTF-8" standalone="no"?>
<!-- Created with Inkscape (http://www.inkscape.org/) -->

<svg
   xmlns:dc="http://purl.org/dc/elements/1.1/"
   xmlns:cc="http://creativecommons.org/ns#"
   xmlns:rdf="http://www.w3.org/1999/02/22-rdf-syntax-ns#"
   xmlns:svg="http://www.w3.org/2000/svg"
   xmlns="http://www.w3.org/2000/svg"
   xmlns:sodipodi="http://sodipodi.sourceforge.net/DTD/sodipodi-0.dtd"
   xmlns:inkscape="http://www.inkscape.org/namespaces/inkscape"
   width="744.09448819"
   height="1052.3622047"
   id="svg3781"
   version="1.1"
   inkscape:version="0.48.3.1 r9886"
   sodipodi:docname="criticalThinking.svg">
  <defs
     id="defs3783" />
  <sodipodi:namedview
     id="base"
     pagecolor="#ffffff"
     bordercolor="#666666"
     borderopacity="1.0"
     inkscape:pageopacity="0.0"
     inkscape:pageshadow="2"
     inkscape:zoom="0.7"
     inkscape:cx="333.49278"
     inkscape:cy="596.46849"
     inkscape:document-units="px"
     inkscape:current-layer="layer1"
     showgrid="false"
     inkscape:window-width="1024"
     inkscape:window-height="705"
     inkscape:window-x="-8"
     inkscape:window-y="-8"
     inkscape:window-maximized="1" />
  <metadata
     id="metadata3786">
    <rdf:RDF>
      <cc:Work
         rdf:about="">
        <dc:format>image/svg+xml</dc:format>
        <dc:type
           rdf:resource="http://purl.org/dc/dcmitype/StillImage" />
        <dc:title></dc:title>
      </cc:Work>
    </rdf:RDF>
  </metadata>
  <g
     inkscape:label="Layer 1"
     inkscape:groupmode="layer"
     id="layer1">
    <g
       style="font-size:144px;font-style:normal;font-variant:normal;font-weight:normal;font-stretch:normal;line-height:125%;letter-spacing:0px;word-spacing:0px;fill:#000000;fill-opacity:1;stroke:none;font-family:Teen;-inkscape-font-specification:Teen"
       id="text3789">
      <path
         d="m 421.24097,657.51003 c -10.56759,2.20211 -21.23907,3.7429 -32.01445,4.62237 -10.77566,0.87953 -25.40152,0.88288 -43.87762,0.009 -1.32942,-14.52851 -2.21224,-27.73105 -2.64856,-39.60768 -0.43633,-11.87652 -0.21817,-24.19958 0.65457,-36.96917 17.16021,-3.51791 31.46043,-5.49508 42.9008,-5.93159 11.44005,-0.43632 23.53815,0.66141 36.29441,3.29311 1.75883,17.16034 2.53092,31.46061 2.31624,42.90075 -0.21495,11.44023 -1.42346,22.00093 -3.62539,31.68212 z M 349.29658,542.68505 c -1.31598,-17.1602 0.11411,-31.5712 4.2901,-43.23311 4.1758,-11.66156 10.22489,-21.45353 18.1472,-29.37593 7.9221,-7.922 17.05274,-14.30338 27.39202,-19.1442 10.33902,-4.84041 20.79226,-8.79814 31.35988,-11.87326 10.11067,-3.07466 19.45618,-6.26369 28.03651,-9.56706 8.57997,-3.30291 15.84083,-7.59301 21.78273,-12.87025 5.94139,-5.27673 10.45305,-12.09787 13.53486,-20.46343 3.08137,-8.36506 4.17905,-19.36214 3.29311,-32.99128 -1.75923,-27.72742 -10.33938,-46.76081 -25.74045,-57.10032 -15.40153,-10.33878 -38.93982,-15.06526 -70.61506,-14.17941 -23.75329,0.42992 -43.21975,4.82753 -58.39939,13.1925 -15.17983,8.36565 -24.9718,22.00794 -29.37592,40.92693 -10.56749,-1.75868 -20.03051,-5.39081 -28.38907,-10.89639 -8.35859,-5.50493 -16.9354,-9.57347 -25.73036,-12.20558 2.64522,-14.95782 8.69762,-27.49908 18.1573,-37.62374 9.45962,-10.12393 20.78903,-18.15358 33.98826,-24.08888 13.19915,-5.93456 27.2778,-10.22462 42.23609,-12.87025 14.9581,-2.6448 29.25831,-3.96739 42.90079,-3.9678 23.75298,4.1e-4 45.19997,1.43043 64.34106,4.29006 19.14059,2.86048 35.63957,8.36234 49.497,16.50572 13.85683,8.14414 24.63575,19.47354 32.33669,33.98826 7.70036,14.51545 11.7722,33.43475 12.21563,56.75791 0.44274,25.95558 -2.30647,46.8554 -8.24783,62.69957 -5.94194,15.84463 -13.86416,28.27508 -23.76662,37.29141 -9.90301,9.01675 -20.90348,15.39479 -33.00136,19.13417 -12.09839,3.73974 -23.86755,6.48899 -35.3075,8.24782 -15.40149,2.20229 -26.62016,7.15365 -33.65595,14.8541 -7.03618,7.70081 -9.67466,21.89029 -7.91549,42.56846 -9.23825,-1.3158 -19.5774,-1.64474 -31.01745,-0.98696 -11.44032,0.65811 -22.22258,1.65171 -32.34678,2.98094 z"
         id="path3794"
         inkscape:connector-curvature="0" />
    </g>
  </g>
</svg>
