<?xml version="1.0" encoding="UTF-8" standalone="no"?>
<!-- Created with Inkscape (http://www.inkscape.org/) -->
<svg
   xmlns:dc="http://purl.org/dc/elements/1.1/"
   xmlns:cc="http://creativecommons.org/ns#"
   xmlns:rdf="http://www.w3.org/1999/02/22-rdf-syntax-ns#"
   xmlns:svg="http://www.w3.org/2000/svg"
   xmlns="http://www.w3.org/2000/svg"
   xmlns:sodipodi="http://sodipodi.sourceforge.net/DTD/sodipodi-0.dtd"
   xmlns:inkscape="http://www.inkscape.org/namespaces/inkscape"
   width="744.09448819"
   height="1052.3622047"
   id="svg12385"
   sodipodi:version="0.32"
   inkscape:version="0.46+pre4"
   sodipodi:docname="scenic vewpoint view point.svg"
   inkscape:output_extension="org.inkscape.output.svg.inkscape">
  <defs
     id="defs12387">
    <inkscape:perspective
       sodipodi:type="inkscape:persp3d"
       inkscape:vp_x="0 : 526.18109 : 1"
       inkscape:vp_y="0 : 1000 : 0"
       inkscape:vp_z="744.09448 : 526.18109 : 1"
       inkscape:persp3d-origin="372.04724 : 350.78739 : 1"
       id="perspective12393" />
  </defs>
  <sodipodi:namedview
     id="base"
     pagecolor="#ffffff"
     bordercolor="#666666"
     borderopacity="1.0"
     gridtolerance="10000"
     guidetolerance="10"
     objecttolerance="10"
     inkscape:pageopacity="0.0"
     inkscape:pageshadow="2"
     inkscape:zoom="0.7"
     inkscape:cx="282.59269"
     inkscape:cy="520"
     inkscape:document-units="px"
     inkscape:current-layer="layer1"
     showgrid="false"
     inkscape:window-width="1280"
     inkscape:window-height="938"
     inkscape:window-x="-4"
     inkscape:window-y="-4" />
  <metadata
     id="metadata12390">
    <rdf:RDF>
      <cc:Work
         rdf:about="">
        <dc:format>image/svg+xml</dc:format>
        <dc:type
           rdf:resource="http://purl.org/dc/dcmitype/StillImage" />
        <dc:title>Other map symbols</dc:title>
        <dc:creator>
          <cc:Agent>
            <dc:title>Mohamed Ibrahim</dc:title>
          </cc:Agent>
        </dc:creator>
        <dc:rights>
          <cc:Agent>
            <dc:title>Public Domain</dc:title>
          </cc:Agent>
        </dc:rights>
        <dc:publisher>
          <cc:Agent>
            <dc:title>clker.com</dc:title>
          </cc:Agent>
        </dc:publisher>
        <dc:subject>
          <rdf:Bag>
            <rdf:li>other map symbols</rdf:li>
          </rdf:Bag>
        </dc:subject>
        <cc:license
           rdf:resource="http://creativecommons.org/licenses/publicdomain/" />
      </cc:Work>
      <cc:License
         rdf:about="http://creativecommons.org/licenses/publicdomain/">
        <cc:permits
           rdf:resource="http://creativecommons.org/ns#Reproduction" />
        <cc:permits
           rdf:resource="http://creativecommons.org/ns#Distribution" />
        <cc:permits
           rdf:resource="http://creativecommons.org/ns#DerivativeWorks" />
      </cc:License>
    </rdf:RDF>
  </metadata>
  <g
     inkscape:label="Layer 1"
     inkscape:groupmode="layer"
     id="layer1">
    <path
       d="M 589.85007,670.02795 C 629.64942,670.02795 661.89116,637.78621 661.89116,597.98686 L 661.89116,139.5934 C 661.89116,99.794047 629.64942,67.613254 589.85007,67.613254 L 131.45661,67.613254 C 91.657256,67.613254 59.537411,99.794047 59.537411,139.5934 L 59.537411,597.98686 C 59.537411,637.78621 91.657256,670.02795 131.45661,670.02795 L 589.85007,670.02795 z"
       style="fill:#231f20;fill-opacity:1;fill-rule:nonzero;stroke:none"
       id="path2530" />
    <path
       d="M 131.45661,79.802948 C 98.605382,79.802948 71.788054,106.62028 71.788054,139.5934 L 71.788054,597.98686 C 71.788054,631.02093 98.605382,657.83826 131.45661,657.83826 L 589.85007,657.83826 C 622.88414,657.83826 649.76242,631.02093 649.76242,597.98686 L 649.76242,139.5934 C 649.76242,106.62028 622.88414,79.802948 589.85007,79.802948 L 131.45661,79.802948 z"
       style="fill:#ffffff;fill-opacity:1;fill-rule:nonzero;stroke:none"
       id="path2532" />
    <path
       d="M 259.3265,368.75965 C 259.3265,399.23389 234.52047,424.10087 203.92434,424.10087 C 173.38916,424.10087 148.58313,399.23389 148.58313,368.75965 C 148.58313,338.16352 173.38916,313.35749 203.92434,313.35749 C 234.52047,313.35749 259.3265,338.16352 259.3265,368.75965"
       style="fill:#231f20;fill-opacity:1;fill-rule:nonzero;stroke:none"
       id="path2534" />
    <path
       d="M 295.5299,351.99882 L 295.5299,385.45954 L 576.4414,406.24297 L 576.4414,331.2154 L 295.5299,351.99882 z"
       style="fill:#231f20;fill-opacity:1;fill-rule:nonzero;stroke:none"
       id="path2536" />
    <path
       d="M 235.37375,281.11575 L 264.26333,297.87658 L 378.9074,141.11711 L 314.05823,103.6338 L 235.37375,281.11575 z"
       style="fill:#231f20;fill-opacity:1;fill-rule:nonzero;stroke:none"
       id="path2538" />
    <path
       d="M 274.99026,308.54256 L 291.69014,337.55404 L 499.76823,241.13355 L 462.22397,176.16248 L 274.99026,308.54256 z"
       style="fill:#231f20;fill-opacity:1;fill-rule:nonzero;stroke:none"
       id="path2540" />
    <path
       d="M 235.37375,456.34261 L 264.26333,439.58178 L 378.9074,596.34125 L 314.05823,633.82456 L 235.37375,456.34261 z"
       style="fill:#231f20;fill-opacity:1;fill-rule:nonzero;stroke:none"
       id="path2542" />
    <path
       d="M 274.99026,428.9158 L 291.69014,399.90432 L 499.76823,496.32481 L 462.22397,561.29588 L 274.99026,428.9158 z"
       style="fill:#231f20;fill-opacity:1;fill-rule:nonzero;stroke:none"
       id="path2544" />
  </g>
</svg>
